<svg width="24" height="24" viewBox="0 0 24 24" fill="none" xmlns="http://www.w3.org/2000/svg">
<path d="M1.6 1.59999C1.49399 1.5985 1.38874 1.61808 1.29036 1.65761C1.19199 1.69714 1.10245 1.75583 1.02696 1.83027C0.951461 1.9047 0.891512 1.9934 0.850594 2.09121C0.809676 2.18901 0.788605 2.29397 0.788605 2.39999C0.788605 2.50601 0.809676 2.61098 0.850594 2.70878C0.891512 2.80659 0.951461 2.89529 1.02696 2.96972C1.10245 3.04416 1.19199 3.10285 1.29036 3.14238C1.38874 3.18191 1.49399 3.20149 1.6 3.19999H3.10312C3.28385 3.19999 3.43465 3.31317 3.48594 3.48749L6.89531 15.0781C7.19454 16.0955 8.13553 16.8 9.19687 16.8H17.9781C19.0569 16.8 20.0093 16.071 20.2938 15.0312L22.3719 7.41093C22.4043 7.29222 22.4089 7.16763 22.3854 7.04685C22.3618 6.92607 22.3107 6.81235 22.236 6.71454C22.1613 6.61673 22.0651 6.53747 21.9548 6.48291C21.8445 6.42836 21.7231 6.39998 21.6 6.4H18.4H14.4V8V11.6687L16.2344 9.83437C16.5472 9.52157 17.0528 9.52157 17.3656 9.83437C17.6784 10.1472 17.6784 10.6528 17.3656 10.9656L14.1656 14.1656C14.0096 14.3216 13.8048 14.4 13.6 14.4C13.3952 14.4 13.1904 14.3216 13.0344 14.1656L9.83438 10.9656C9.52157 10.6528 9.52157 10.1472 9.83438 9.83437C10.1472 9.52157 10.6528 9.52157 10.9656 9.83437L12.8 11.6687V8V7.2V6.4H6.01094L5.02187 3.03593H5.02031C4.7708 2.18786 3.9864 1.59999 3.10312 1.59999H1.6ZM12.8 6.4H14.4V2.39999C14.4 1.95839 14.0416 1.59999 13.6 1.59999C13.1584 1.59999 12.8 1.95839 12.8 2.39999V6.4ZM9.6 18.4C9.17565 18.4 8.76869 18.5686 8.46863 18.8686C8.16857 19.1687 8 19.5756 8 20C8 20.4243 8.16857 20.8313 8.46863 21.1314C8.76869 21.4314 9.17565 21.6 9.6 21.6C10.0243 21.6 10.4313 21.4314 10.7314 21.1314C11.0314 20.8313 11.2 20.4243 11.2 20C11.2 19.5756 11.0314 19.1687 10.7314 18.8686C10.4313 18.5686 10.0243 18.4 9.6 18.4ZM17.6 18.4C17.1757 18.4 16.7687 18.5686 16.4686 18.8686C16.1686 19.1687 16 19.5756 16 20C16 20.4243 16.1686 20.8313 16.4686 21.1314C16.7687 21.4314 17.1757 21.6 17.6 21.6C18.0243 21.6 18.4313 21.4314 18.7314 21.1314C19.0314 20.8313 19.2 20.4243 19.2 20C19.2 19.5756 19.0314 19.1687 18.7314 18.8686C18.4313 18.5686 18.0243 18.4 17.6 18.4Z" fill="white"/>
</svg>
