<svg width="24" height="24" viewBox="0 0 24 24" fill="none" xmlns="http://www.w3.org/2000/svg">
<path d="M23.495 6.20522C23.3559 5.70699 23.0907 5.25305 22.725 4.88727C22.3592 4.5215 21.9052 4.25628 21.407 4.11723C19.537 3.61623 12.011 3.61623 12.011 3.61623C12.011 3.61623 4.504 3.60623 2.615 4.11723C2.11676 4.25628 1.66282 4.5215 1.29705 4.88727C0.931279 5.25305 0.66605 5.70699 0.527 6.20522C0.17252 8.11974 -0.00223983 10.0632 0.00499962 12.0102C-0.000871246 13.9499 0.173883 15.8859 0.527 17.7932C0.66605 18.2915 0.931279 18.7454 1.29705 19.1112C1.66282 19.4769 2.11676 19.7422 2.615 19.8812C4.483 20.3832 12.011 20.3832 12.011 20.3832C12.011 20.3832 19.517 20.3832 21.407 19.8812C21.9052 19.7422 22.3592 19.4769 22.725 19.1112C23.0907 18.7454 23.3559 18.2915 23.495 17.7932C23.8407 15.8852 24.0081 13.9492 23.995 12.0102C24.0095 10.0639 23.8421 8.12043 23.495 6.20522ZM9.609 15.6012V8.40823L15.873 12.0102L9.609 15.6012Z" fill="white"/>
</svg>
